<?xml version="1.0" encoding="utf-8"?>
<!-- Generator: Adobe Illustrator 22.0.0, SVG Export Plug-In . SVG Version: 6.00 Build 0)  -->
<svg version="1.1" id="Слой_1" xmlns="http://www.w3.org/2000/svg" xmlns:xlink="http://www.w3.org/1999/xlink" x="0px" y="0px"
	 viewBox="0 0 2500 662" style="enable-background:new 0 0 2500 662;" xml:space="preserve">
<style type="text/css">
	.st0{fill:#FFFFFF;}
	.st1{fill-opacity:0.1;}
	.st2{fill:url(#SVGID_1_);}
	.st3{fill:url(#SVGID_2_);}
	.st4{fill:url(#SVGID_3_);}
	.st5{fill:url(#SVGID_4_);}
	.st6{fill:url(#SVGID_5_);}
	.st7{fill:url(#SVGID_6_);}
	.st8{fill:url(#SVGID_7_);}
</style>
<g>
	<path class="st0" d="M960.8,465.5c-12.9,6.2-41.4,15.7-77.8,15.7c-81.7,0-134.9-55.4-134.9-138.2c0-83.4,57.1-144.4,145.5-144.4
		c29.1,0,54.9,7.3,68.3,14.6l-11.2,37.5c-11.8-6.2-30.2-12.9-57.1-12.9c-62.1,0-95.7,46.5-95.7,102.4c0,62.7,40.3,101.3,94,101.3
		c28,0,46.5-6.7,60.4-12.9L960.8,465.5L960.8,465.5z M1018.4,77.7h49.3v169.6h1.1c7.8-14,20.1-26.9,35.3-35.3
		c15.3-8.8,32.7-13.4,50.4-13.4c36.4,0,94.6,22.4,94.6,115.3V475h-49.3V319.5c0-43.7-16.2-80-62.7-80c-31.9,0-56.5,22.4-66,48.7
		c-2.8,7.3-3.4,14.5-3.4,23.5V475h-49.3L1018.4,77.7L1018.4,77.7z M1329.1,288.7c0-31.9-0.6-59.3-2.2-84.5h43.1l2.2,53.7h1.7
		c12.3-36.4,42.5-59.3,75.6-59.3c5,0,9,0.6,13.4,1.1v46.5c-5-1.1-10.1-1.1-16.8-1.1c-34.7,0-59.3,25.7-66,62.7
		c-1.1,6.7-1.7,15.1-1.7,22.9V475h-49.3V288.7z M1751.7,337.4c0,100.2-70,143.8-134.9,143.8c-72.8,0-129.8-53.7-129.8-139.4
		c0-90.1,59.9-143.3,134.3-143.3C1699,198.5,1751.7,255.1,1751.7,337.4L1751.7,337.4z M1537.3,340.2c0,59.3,33.6,104.1,81.7,104.1
		c47,0,82.3-44.2,82.3-105.2c0-45.9-22.9-103.6-81.2-103.6C1562.5,235.5,1537.3,289.2,1537.3,340.2z M1813.8,277.5
		c0-28.5-1.1-50.9-2.2-73.3h43.1l2.2,44.2h1.7c15.1-25.7,40.3-49.8,85.6-49.8c36.4,0,64.4,22.4,76.1,54.3h1.1
		c8.4-15.7,19.6-26.9,30.8-35.3c16.2-12.3,33.6-19,59.3-19c36.4,0,89.6,23.5,89.6,117.5v159H2153V322.2c0-52.6-19.6-83.4-58.8-83.4
		c-28.5,0-49.8,20.7-58.8,44.2c-2.2,7.3-3.9,15.7-3.9,24.6V475h-48.1V312.7c0-43.1-19-73.9-56.5-73.9c-30.2,0-53.2,24.6-61,49.3
		c-2.8,6.7-3.9,15.7-3.9,24.1V475h-48.1V277.5z M2308,348.5c1.1,66.6,43.1,94,92.9,94c35.3,0,57.1-6.2,75-14l9,35.3
		c-17.4,7.8-47.6,17.4-90.7,17.4c-83.4,0-133.2-55.4-133.2-137.1s48.1-145.5,127.1-145.5c89,0,111.9,77.2,111.9,127.1
		c0,10.1-0.6,17.4-1.7,22.9L2308,348.5L2308,348.5z M2452.4,313.3c0.6-30.8-12.9-79.5-68.3-79.5c-50.4,0-71.6,45.3-75.6,79.5H2452.4
		L2452.4,313.3z"/>
</g>
<circle class="st0" cx="331.6" cy="332.3" r="325.7"/>
<path class="st1" d="M538.9,391.5c0-114.5-92.8-207.3-207.3-207.3c-114.5,0-207.3,92.8-207.3,207.3h59.2
	c0-81.8,66.3-148.1,148.1-148.1s148.1,66.3,148.1,148.1"/>
<circle class="st1" cx="346.4" cy="373.7" r="112.5"/>
<linearGradient id="SVGID_1_" gradientUnits="userSpaceOnUse" x1="1046.9264" y1="434.1562" x2="1046.9264" y2="433.3952" gradientTransform="matrix(318.7238 0 0 -318.7238 -333348.8438 138587.125)">
	<stop  offset="0" style="stop-color:#81B4E0"/>
	<stop  offset="1" style="stop-color:#0C5A94"/>
</linearGradient>
<circle class="st2" cx="331.6" cy="332.3" r="121.4"/>
<linearGradient id="SVGID_2_" gradientUnits="userSpaceOnUse" x1="776.6093" y1="-153.0486" x2="776.6093" y2="-222.3796" gradientTransform="matrix(3.8869 0 0 -3.8869 -2676.615 -594.2868)">
	<stop  offset="0" style="stop-color:#F06B59"/>
	<stop  offset="1" style="stop-color:#DF2227"/>
</linearGradient>
<path class="st3" d="M627.7,184.2C546.2,20.2,347.1-46.7,183.1,34.8C132,60.2,88.3,98.4,56.2,145.7l133.3,231
	c-24.5-78,18.8-161.1,96.8-185.7c13.7-4.3,28-6.6,42.4-6.8"/>
<linearGradient id="SVGID_3_" gradientUnits="userSpaceOnUse" x1="709.3907" y1="-299.0302" x2="744.4357" y2="-241.1301" gradientTransform="matrix(3.8869 0 0 -3.8869 -2676.615 -594.2868)">
	<stop  offset="0" style="stop-color:#388B41"/>
	<stop  offset="1" style="stop-color:#4CB749"/>
</linearGradient>
<path class="st4" d="M56.2,145.7C-45.8,297.9-5.1,503.9,147,605.9c47.1,31.6,101.4,50.5,157.9,55.1l139.2-236.9
	c-52,63.1-145.4,72-208.4,20c-21.4-17.7-37.4-41-46.2-67.4"/>
<linearGradient id="SVGID_4_" gradientUnits="userSpaceOnUse" x1="826.7907" y1="-305.1882" x2="789.4597" y2="-215.2892" gradientTransform="matrix(3.8869 0 0 -3.8869 -2676.615 -594.2868)">
	<stop  offset="0" style="stop-color:#E4B022"/>
	<stop  offset="0.3" style="stop-color:#FCD209"/>
</linearGradient>
<path class="st5" d="M305,661c182.6,13.8,341.9-123.1,355.7-305.7c4.5-58.9-6.9-118-32.9-171H328.6c81.8,0.4,147.8,67,147.4,148.7
	c-0.2,33.1-11.4,65.2-31.9,91.1"/>
<linearGradient id="SVGID_5_" gradientUnits="userSpaceOnUse" x1="720.9933" y1="-247.5216" x2="720.9933" y2="-186.5736" gradientTransform="matrix(3.8869 0 0 -3.8869 -2676.615 -594.2868)">
	<stop  offset="0" style="stop-color:#000000;stop-opacity:0.15"/>
	<stop  offset="0.3" style="stop-color:#000000;stop-opacity:6.000000e-02"/>
	<stop  offset="1" style="stop-color:#000000;stop-opacity:3.000000e-02"/>
</linearGradient>
<path class="st6" d="M56.2,145.7l133.3,231c-9.9-33.2-7.8-68.9,5.9-100.7L62.1,136.8"/>
<linearGradient id="SVGID_6_" gradientUnits="userSpaceOnUse" x1="805.1201" y1="-267.2028" x2="763.2191" y2="-309.8658" gradientTransform="matrix(3.8869 0 0 -3.8869 -2676.615 -594.2868)">
	<stop  offset="0" style="stop-color:#000000;stop-opacity:0.15"/>
	<stop  offset="0.3" style="stop-color:#000000;stop-opacity:6.000000e-02"/>
	<stop  offset="1" style="stop-color:#000000;stop-opacity:3.000000e-02"/>
</linearGradient>
<path class="st7" d="M305,661l139.2-236.9c-22,26.2-52.3,44-85.9,50.3L299,661"/>
<linearGradient id="SVGID_7_" gradientUnits="userSpaceOnUse" x1="804.5121" y1="-279.4767" x2="810.6071" y2="-219.2926" gradientTransform="matrix(3.8869 0 0 -3.8869 -2676.615 -594.2868)">
	<stop  offset="0" style="stop-color:#000000;stop-opacity:0.15"/>
	<stop  offset="0.3" style="stop-color:#000000;stop-opacity:6.000000e-02"/>
	<stop  offset="1" style="stop-color:#000000;stop-opacity:3.000000e-02"/>
</linearGradient>
<path class="st8" d="M627.7,184.2H328.6c45.1,0.2,87.6,20.9,115.5,56.3l189.5-47.4"/>
</svg>
