<?xml version="1.0" encoding="utf-8"?>
<!-- Generator: Adobe Illustrator 22.0.0, SVG Export Plug-In . SVG Version: 6.00 Build 0)  -->
<svg version="1.1" id="Layer_1" xmlns="http://www.w3.org/2000/svg" xmlns:xlink="http://www.w3.org/1999/xlink" x="0px" y="0px"
	 viewBox="0 0 497.9 548.5" style="enable-background:new 0 0 497.9 548.5;" xml:space="preserve">
<style type="text/css">
	.st0{fill:#265AA6;}
	.st1{fill:#449DD7;}
	.st2{fill:#FFFFFF;}
	.st3{fill:url(#SVGID_1_);}
	.st4{fill:url(#SVGID_2_);}
	.st5{fill:url(#SVGID_3_);}
	.st6{opacity:5.000000e-02;}
	.st7{fill:url(#SVGID_4_);}
	.st8{opacity:5.000000e-02;enable-background:new    ;}
</style>
<g>
	<g>
		<polygon class="st0" points="453.1,496.9 250.6,550.2 48,496.9 1.3,2 500,2 		"/>
		<polygon class="st1" points="250.6,42.1 250.6,507.7 251,507.8 415.1,464.6 452.9,42.1 		"/>
		<g>
			<polygon class="st2" points="250.4,165.8 105.4,224.8 110.2,283.2 250.4,224.7 399.6,162.5 405.7,102.6 			"/>
			
				<linearGradient id="SVGID_1_" gradientUnits="userSpaceOnUse" x1="177.9" y1="-254.8" x2="177.9" y2="-372.2" gradientTransform="matrix(1 0 0 1 0 538)">
				<stop  offset="0.3865" style="stop-color:#DADADA;stop-opacity:0"/>
				<stop  offset="1" style="stop-color:#DADADA"/>
			</linearGradient>
			<polygon class="st3" points="105.4,224.8 110.2,283.2 250.4,224.7 250.4,165.8 			"/>
			
				<linearGradient id="SVGID_2_" gradientUnits="userSpaceOnUse" x1="328.05" y1="-313.3" x2="328.05" y2="-435.4" gradientTransform="matrix(1 0 0 1 0 538)">
				<stop  offset="0.3865" style="stop-color:#DADADA;stop-opacity:0"/>
				<stop  offset="1" style="stop-color:#DADADA"/>
			</linearGradient>
			<polygon class="st4" points="405.7,102.6 250.4,165.8 250.4,224.7 399.6,162.5 			"/>
			
				<linearGradient id="SVGID_3_" gradientUnits="userSpaceOnUse" x1="105.7" y1="-202.35" x2="394.3" y2="-202.35" gradientTransform="matrix(1 0 0 1 0 538)">
				<stop  offset="0" style="stop-color:#EEEDED"/>
				<stop  offset="1" style="stop-color:#FFFFFF"/>
			</linearGradient>
			<polygon class="st5" points="105.7,224.8 110.5,283.2 325.5,284 320.8,361.9 250,381.3 181.9,364.5 177.8,316.2 114.6,316.2 
				122.8,409.5 250.7,446.5 377.7,410.3 394.3,224.8 			"/>
			<g class="st6">
				<polygon points="250.4,224.8 105.4,224.8 110.2,283.2 250.4,283.7 				"/>
				<polygon points="250.4,381.2 249.7,381.3 181.7,364.5 177.5,316.2 114.3,316.2 122.7,409.5 250.4,446.5 				"/>
			</g>
			
				<linearGradient id="SVGID_4_" gradientUnits="userSpaceOnUse" x1="92.3" y1="-405.45" x2="405.7" y2="-405.45" gradientTransform="matrix(1 0 0 1 0 538)">
				<stop  offset="0" style="stop-color:#EEEDED"/>
				<stop  offset="1" style="stop-color:#FFFFFF"/>
			</linearGradient>
			<polygon class="st7" points="92.3,102.6 405.7,102.6 399.6,162.5 99.9,162.5 			"/>
			<polygon class="st8" points="250.4,102.6 92.3,102.6 99.9,162.5 250.4,162.5 			"/>
		</g>
	</g>
</g>
</svg>
