<?xml version="1.0" encoding="utf-8"?>
<!-- Generator: Adobe Illustrator 22.0.0, SVG Export Plug-In . SVG Version: 6.00 Build 0)  -->
<svg version="1.1" id="Слой_1" xmlns="http://www.w3.org/2000/svg" xmlns:xlink="http://www.w3.org/1999/xlink" x="0px" y="0px"
	 viewBox="0 0 1582.7 1792" style="enable-background:new 0 0 1582.7 1792;" xml:space="preserve">
<style type="text/css">
	.st0{fill:#E34E26;}
	.st1{fill:#EF662A;}
	.st2{fill:#FFFFFF;}
	.st3{fill:#EBEBEB;}
</style>
<g id="Logo_artwork">
</g>
<g id="Guides_to_delete">
	<g>
		<polygon class="st0" points="148.1,1612.4 4,-4 1586.7,-4 1442.5,1612.5 795,1792 		"/>
		<polygon class="st1" points="795.4,128.1 795.4,1654.7 1318.9,1509.6 1442.3,128.1 		"/>
		<polygon class="st2" points="298.8,326.4 352.3,925.9 1039.4,925.9 1016.4,1183.1 795.1,1242.9 574.3,1183.1 559.5,1018 
			360.5,1018 389,1336.3 795.1,1449.1 1201.7,1336.3 1256.2,727.7 533.6,727.7 515.5,524.7 1273.5,524.7 1274.1,524.7 1291.9,326.4 
					"/>
		<g>
			<polygon class="st3" points="795.4,326.4 298.8,326.4 352.3,925.9 795.4,925.9 795.4,727.7 533.6,727.7 515.5,524.7 795.4,524.7 
							"/>
			<polygon class="st3" points="795.4,1242.8 795.1,1242.9 574.3,1183.1 559.5,1018 360.5,1018 389,1336.3 795.1,1449.1 795.4,1449 
							"/>
		</g>
	</g>
</g>
</svg>
