<?xml version="1.0" encoding="utf-8"?>
<!-- Generator: Adobe Illustrator 22.0.0, SVG Export Plug-In . SVG Version: 6.00 Build 0)  -->
<svg version="1.1" id="Layer_1" xmlns="http://www.w3.org/2000/svg" xmlns:xlink="http://www.w3.org/1999/xlink" x="0px" y="0px"
	 viewBox="0 0 490.6 143.7" style="enable-background:new 0 0 490.6 143.7;" xml:space="preserve">
<style type="text/css">
	.st0{fill:#0D61A8;}
	.st1{fill:#3B3835;}
	.st2{fill:#FFFFFF;}
</style>
<g>
	<g>
		<g>
			<path class="st0" d="M188.4,131.7c0,1.3-0.1,2.6-0.3,4l4.4-9.5l-0.5-3.1l4.4-0.8l1.6,13.1l2-8.2c0.2-0.8,0.2-1.4,0.3-2
				c0-0.6,0-1.2-0.2-2.1l4.6-1c0.2,1.1,0.3,2.1,0.2,3.1c0,1.3-0.3,2.8-1.1,4.9l-3.7,11.9h-5.5l-1.2-8.9l-4.3,8.9h-5.3
				c0.2-8.3,0-13.4-0.5-18.9l4.6-0.8C188.3,125.3,188.5,128.3,188.4,131.7z"/>
			<path class="st0" d="M216.9,127.2c-2.1,1.4-2.9,1.9-4.8,3.3L210,142h-4.7l3.3-19.1l4.2-0.8l-0.2,2.6c1.6-1.1,2.9-1.9,4.3-2.6
				L216.9,127.2z"/>
			<path class="st0" d="M219.7,122.9l4.9-0.8l-3.5,19.9h-4.7L219.7,122.9z M221.2,114.2l4.9-0.8l-1.1,6l-4.9,0.8L221.2,114.2z"/>
			<path class="st0" d="M233.3,127l-1.7,9.8c0,0.2-0.1,0.4-0.1,0.5c0,0.3,0.1,0.4,0.5,0.4c0.8,0,1.7-0.4,2.6-0.8l0.8,3.9
				c-1.4,0.9-3.3,1.6-5.3,1.6c-2.4,0-3.6-1.4-3.6-3.7c0-0.3,0.1-0.6,0.1-0.8l1.9-10.9h-2.4l0.8-4.5h2.4l0.8-4.7l4.9-0.8l-1,5.5h3.9
				L237,127H233.3z"/>
			<path class="st0" d="M239,129.4c0.8-4.5,2.6-7.4,7.7-7.4c3.1,0,5.4,1.6,5.3,4.9c-0.1,3.8-1.8,5.6-5.9,7c-2,0.7-2,0.7-3.5,1.2
				l-0.2,1.4c-0.1,0.7-0.1,1.4,0.8,1.4c1.7,0,4.2-1,6.5-2.2l0.8,4c-2,1.5-5.2,2.7-8.1,2.7c-3.4,0-4.8-1.8-4.7-5.1
				c0-0.7,0.1-1.5,0.3-2.4L239,129.4z M247.6,127.5c0-0.7-0.5-1.1-1.3-1.1c-1.7,0-2.3,1.2-2.5,2.8l-0.2,1.4c0.8-0.2,1.2-0.3,2.2-0.7
				C246.9,129.4,247.6,128.7,247.6,127.5z"/>
			<path class="st0" d="M264.2,114.4l4.9-0.8l-5,28.3h-4.7L264.2,114.4z"/>
			<path class="st0" d="M269.7,129.4c0.8-4.5,2.6-7.4,7.7-7.4c3.1,0,5.4,1.6,5.3,4.9c-0.1,3.8-1.8,5.6-5.9,7c-2,0.7-2,0.7-3.5,1.2
				l-0.2,1.4c-0.1,0.7-0.1,1.4,0.8,1.4c1.7,0,4.2-1,6.5-2.2l0.8,4c-2,1.5-5.2,2.7-8.1,2.7c-3.4,0-4.8-1.8-4.7-5.1
				c0-0.7,0.1-1.5,0.3-2.4L269.7,129.4z M278.4,127.5c0-0.7-0.5-1.1-1.3-1.1c-1.7,0-2.3,1.2-2.5,2.8l-0.2,1.4
				c0.8-0.2,1.2-0.3,2.2-0.7C277.7,129.4,278.3,128.7,278.4,127.5z"/>
			<path class="st0" d="M283.2,141.1l1-4.2c1.2,0.5,2.6,1,4.4,1c1.6,0,1.7-0.6,1.9-1.5c0.2-0.9-0.3-1.4-2.1-2.5
				c-3.4-2.2-3.5-3.6-2.9-6.5c0.8-4.2,1.8-5.3,6.4-5.3c1.5,0,3.5,0.4,4.8,0.9l-0.9,4.3c-1.2-0.4-3-0.7-4.1-0.7
				c-1.4,0-1.6,0.2-1.8,1.2c-0.2,0.9,0,1.1,1.6,2.1c3.7,2.4,4.2,3.3,3.7,6.3c-0.8,4.4-1.9,6.2-6.8,6.2
				C286.7,142.4,284.6,141.9,283.2,141.1z"/>
			<path class="st0" d="M296.7,141.1l1-4.2c1.2,0.5,2.6,1,4.4,1c1.6,0,1.7-0.6,1.9-1.5c0.2-0.9-0.3-1.4-2.1-2.5
				c-3.4-2.2-3.5-3.6-2.9-6.5c0.8-4.2,1.8-5.3,6.4-5.3c1.5,0,3.5,0.4,4.8,0.9l-0.9,4.3c-1.2-0.4-3-0.7-4.1-0.7
				c-1.4,0-1.6,0.2-1.8,1.2c-0.2,0.9,0,1.1,1.6,2.1c3.7,2.4,4.2,3.3,3.7,6.3c-0.8,4.4-1.9,6.2-6.8,6.2
				C300.3,142.4,298.2,141.9,296.7,141.1z"/>
			<path class="st0" d="M309.7,146.4l2.7-4.4h-1.8l1.2-6.7h4.7l-1.3,7.1l-3.9,5.5L309.7,146.4z"/>
			<path class="st0" d="M335.6,142l-0.1-1.7c-1.2,1.2-2.9,2.1-5.3,2.1c-3.6,0-4.4-2.6-3.6-6.9l0.9-5.3c0.8-4.7,1.9-8.1,8.8-8.1
				c0.5,0,1.5,0.1,2,0.2l1.4-7.8l4.9-0.8l-5,28.3H335.6z M331.3,136.1c-0.2,1,0,1.5,0.9,1.5c1.7,0,2.9-1,3.9-2l1.5-8.7
				c-0.5-0.1-1.2-0.2-1.8-0.2c-2.5,0-3,1.6-3.4,3.5L331.3,136.1z"/>
			<path class="st0" d="M344,135.8c0-0.4,0.1-0.9,0.1-1.4l0.8-4.5c0.9-5,3-7.9,8.7-7.9c4.4,0,6.3,3,6.2,6.5c0,0.4-0.1,0.9-0.1,1.4
				l-0.8,4.5c-0.8,4.7-2.8,7.9-8.8,7.9C346,142.4,343.9,139.4,344,135.8z M355.1,129c0-1.4-0.7-2.2-2.2-2.2c-1.8,0-2.9,1.1-3.2,3
				l-0.8,4.9c0,0.3-0.1,0.6-0.1,0.8c0,1.4,0.7,2.2,2.2,2.2c1.8,0,2.9-1.1,3.2-3l0.8-4.9C355.1,129.5,355.1,129.2,355.1,129z"/>
			<path class="st0" d="M388.8,128.7c0-0.2,0.1-0.4,0.1-0.6c0-0.4-0.2-0.6-0.6-0.6c-0.9,0-3,1-4.3,1.9l-2.2,12.6H377l2.3-13.3
				c0-0.2,0.1-0.4,0.1-0.6c0-0.4-0.2-0.6-0.6-0.6c-0.9,0-3,1-4.3,1.8l-2.2,12.6h-4.7l3.3-19.1l4.2-0.8l-0.1,2.2
				c2.6-1.4,4.6-2.2,6.5-2.2c1.6,0,2.4,0.8,2.8,2.3c2.5-1.7,4.8-2.3,6.7-2.3c2.2,0,2.9,1.5,2.9,4c0,0.7-0.1,1.4-0.2,2.2l-2.4,13.7
				h-4.7L388.8,128.7z"/>
			<path class="st0" d="M395.5,135.8c0-0.4,0.1-0.9,0.1-1.4l0.8-4.5c0.9-5,3-7.9,8.7-7.9c4.4,0,6.3,3,6.2,6.5c0,0.4-0.1,0.9-0.1,1.4
				l-0.8,4.5c-0.8,4.7-2.8,7.9-8.8,7.9C397.4,142.4,395.3,139.4,395.5,135.8z M406.6,129c0-1.4-0.7-2.2-2.2-2.2
				c-1.8,0-2.9,1.1-3.2,3l-0.8,4.9c0,0.3-0.1,0.6-0.1,0.8c0,1.4,0.7,2.2,2.2,2.2c1.8,0,2.9-1.1,3.2-3l0.8-4.9
				C406.5,129.5,406.6,129.2,406.6,129z"/>
			<path class="st0" d="M423.9,127.2c-2.1,1.4-2.9,1.9-4.8,3.3L417,142h-4.7l3.3-19.1l4.2-0.8l-0.2,2.6c1.6-1.1,2.9-1.9,4.3-2.6
				L423.9,127.2z"/>
			<path class="st0" d="M425,129.4c0.8-4.5,2.6-7.4,7.7-7.4c3.1,0,5.4,1.6,5.3,4.9c-0.1,3.8-1.8,5.6-5.9,7c-2,0.7-2,0.7-3.5,1.2
				l-0.2,1.4c-0.1,0.7-0.1,1.4,0.8,1.4c1.7,0,4.2-1,6.5-2.2l0.8,4c-2,1.5-5.2,2.7-8.1,2.7c-3.4,0-4.8-1.8-4.7-5.1
				c0-0.7,0.1-1.5,0.3-2.4L425,129.4z M433.6,127.5c0-0.7-0.5-1.1-1.3-1.1c-1.7,0-2.3,1.2-2.5,2.8l-0.2,1.4c0.8-0.2,1.2-0.3,2.2-0.7
				C432.9,129.4,433.6,128.7,433.6,127.5z"/>
			<path class="st0" d="M439.9,135.3h4.7l-1.2,6.7h-4.7L439.9,135.3z"/>
		</g>
	</g>
	<path class="st0" d="M5.7,27.7c-8,13.7-7,31.6-0.9,46.2c0.1,0.4,0.3,0.7,0.4,1c0.1,0.2,0.2,0.4,0.3,0.7c0,0.1,0.1,0.3,0.2,0.4
		c0.1,0.2,0.2,0.5,0.3,0.7c0.2,0.4,0.4,0.8,0.6,1.2c0.1,0.2,0.2,0.4,0.3,0.7c0.2,0.4,0.5,0.8,0.7,1.3C7.8,80,7.9,80.2,8,80.3
		c0.3,0.6,0.6,1.1,1,1.7c0,0,0,0,0,0c0.1,0.1,0.1,0.2,0.2,0.3c0.3,0.5,0.6,1,0.9,1.4c0.1,0.2,0.2,0.3,0.3,0.5
		c0.3,0.4,0.6,0.8,0.8,1.2c0.1,0.1,0.2,0.3,0.3,0.4c0.4,0.5,0.8,1.1,1.1,1.6c0,0,0,0,0,0c0,0,0,0,0.1,0.1c0.4,0.5,0.8,1,1.2,1.5
		c0.1,0.1,0.2,0.3,0.4,0.5c0.3,0.4,0.6,0.7,0.9,1.1c0.1,0.1,0.3,0.3,0.4,0.4c0.4,0.5,0.8,0.9,1.3,1.4c0,0,0,0,0,0
		c0.1,0.1,0.2,0.1,0.2,0.2c0.4,0.4,0.8,0.8,1.2,1.2c0.2,0.2,0.3,0.3,0.5,0.5c0.3,0.3,0.7,0.6,1,0.9c0.2,0.2,0.3,0.3,0.5,0.5
		c0.4,0.3,0.7,0.6,1.1,0.9c0.1,0.1,0.3,0.2,0.4,0.3c0,0,0.1,0.1,0.1,0.1c0.4,0.3,0.7,0.6,1.1,0.8c0.2,0.1,0.3,0.2,0.5,0.4
		c0.6,0.4,1.1,0.8,1.6,1.2c0.2,0.1,0.3,0.2,0.5,0.3c0.4,0.3,0.8,0.6,1.2,0.8c0.2,0.2,0.5,0.3,0.7,0.4c0.3,0.2,0.6,0.4,0.9,0.6
		c0.1,0,0.1,0.1,0.2,0.1c0.1,0.1,0.2,0.1,0.4,0.2c0.5,0.3,0.9,0.5,1.4,0.8c0.1,0.1,0.2,0.1,0.3,0.2c0.5,0.3,1.1,0.6,1.6,0.8
		c0.1,0.1,0.3,0.1,0.4,0.2c0.5,0.2,1,0.5,1.5,0.7c0.1,0,0.1,0.1,0.2,0.1c0.6,0.2,1.1,0.5,1.7,0.7c0.1,0,0.3,0.1,0.4,0.1
		c0.6,0.2,1.2,0.5,1.8,0.6c38.7,8.4,50-27.8,50-27.8C78.8,93,62,96.8,46.1,92.5c-0.6-0.2-1.2-0.4-1.8-0.6c-0.1,0-0.3-0.1-0.4-0.2
		c-0.6-0.2-1.1-0.4-1.7-0.7c-0.1,0-0.2-0.1-0.2-0.1c-0.5-0.2-1-0.4-1.5-0.7c-0.1-0.1-0.3-0.1-0.4-0.2c-0.6-0.3-1.1-0.5-1.6-0.8
		c-0.1-0.1-0.2-0.1-0.3-0.2c-0.5-0.3-0.9-0.5-1.4-0.8c-0.1-0.1-0.3-0.1-0.4-0.2c-0.4-0.2-0.7-0.4-1.1-0.6c-0.2-0.1-0.5-0.3-0.7-0.4
		c-0.4-0.3-0.9-0.6-1.3-0.8c-0.1-0.1-0.3-0.2-0.4-0.3c-0.6-0.4-1.1-0.8-1.7-1.2c-0.2-0.1-0.3-0.2-0.4-0.4c-0.4-0.3-0.8-0.6-1.2-0.9
		c-0.1-0.1-0.2-0.2-0.4-0.3c-0.4-0.3-0.7-0.6-1.1-1c-0.2-0.1-0.3-0.3-0.5-0.4c-0.3-0.3-0.7-0.6-1-0.9c-0.1-0.1-0.3-0.3-0.4-0.4
		c-0.4-0.4-0.8-0.8-1.3-1.3c0-0.1-0.1-0.1-0.1-0.1c-0.4-0.5-0.9-1-1.3-1.4c-0.1-0.1-0.2-0.3-0.4-0.4c-0.3-0.4-0.6-0.7-0.9-1.1
		c-0.1-0.2-0.2-0.3-0.4-0.4c-0.4-0.5-0.8-1-1.2-1.5c0,0,0,0-0.1-0.1c-0.4-0.5-0.8-1.1-1.2-1.6c-0.1-0.1-0.2-0.3-0.3-0.4
		c-0.3-0.4-0.6-0.8-0.9-1.2c-0.1-0.2-0.2-0.3-0.3-0.5c-0.3-0.5-0.7-1-1-1.6C8.1,54.3,4.9,34.5,12,18.2"/>
	<path class="st0" d="M30.6,16.1c-5.8,9.9-5.5,23.3-1,33.8c0.7,1.8,1.6,3.5,2.6,5.1c0.9,1.5,1.8,3.3,3,4.4c0.4,0.5,0.8,1.1,1.3,1.6
		c0.1,0.1,0.2,0.3,0.3,0.4c0.4,0.5,0.9,1,1.3,1.5c0,0,0,0,0.1,0.1c0,0,0,0,0,0c0.5,0.5,1,1,1.5,1.5c0.1,0.1,0.2,0.2,0.4,0.3
		c0.5,0.5,1.1,1,1.6,1.4c0,0,0,0,0.1,0c0.2,0.2,0.5,0.4,0.7,0.6c0.1,0.1,0.2,0.2,0.3,0.3c0.4,0.3,0.8,0.6,1.2,0.9
		c0.1,0,0.1,0.1,0.2,0.1c0.3,0.2,0.7,0.5,1.1,0.7c0.1,0.1,0.2,0.2,0.4,0.2c0.2,0.1,0.5,0.3,0.7,0.5c0,0,0.1,0,0.1,0.1
		c0.5,0.3,1,0.6,1.5,0.9c0.1,0.1,0.2,0.1,0.3,0.2c0.4,0.2,0.8,0.4,1.3,0.6c0.2,0.1,0.4,0.2,0.5,0.2c0.4,0.2,0.8,0.3,1.2,0.5
		c0.2,0.1,0.4,0.1,0.5,0.2c0.6,0.2,1.1,0.5,1.7,0.6c29.9,5.9,36.8-21.6,36.8-21.6C84.2,62,72.1,67.1,59.3,63.1
		c-0.6-0.2-1.1-0.4-1.7-0.6c-0.2-0.1-0.3-0.1-0.5-0.2c-0.4-0.2-0.8-0.3-1.2-0.5c-0.2-0.1-0.4-0.2-0.5-0.2c-0.4-0.2-0.9-0.4-1.3-0.6
		c-0.1-0.1-0.2-0.1-0.3-0.2c-0.5-0.3-1.1-0.6-1.6-0.9c-0.3-0.2-0.5-0.3-0.8-0.5c-0.2-0.1-0.3-0.2-0.4-0.3c-0.3-0.2-0.7-0.4-1-0.7
		c-0.1-0.1-0.2-0.1-0.2-0.2c-0.4-0.3-0.8-0.6-1.2-0.9c-0.1-0.1-0.2-0.2-0.4-0.3c-0.3-0.2-0.5-0.4-0.8-0.6c-0.5-0.5-1.1-0.9-1.6-1.4
		c-0.1-0.1-0.2-0.2-0.4-0.3C39.8,49.5,35.3,42.3,33.2,34c-2.2-8.5-1.7-18.1,2.1-25.9"/>
	<path class="st0" d="M51.5,7.5c-3.4,6-3.8,13.5-1.4,20.1c2.5,7,7.6,12.6,13.6,15.2c0.2,0.1,0.5,0.2,0.7,0.3c0.1,0,0.2,0.1,0.3,0.1
		c0.3,0.1,0.7,0.3,1.1,0.4c16.5,3.8,21-10.1,22.2-12.2c-3.9,6.7-10.5,8.4-18.6,6c-0.6-0.2-1.3-0.5-1.9-0.7c-0.8-0.3-1.6-0.7-2.3-1.1
		c-1.4-0.8-2.8-1.8-4.1-3C53.8,26,49.3,13.5,54,3.3"/>
	<path class="st1" d="M434,35.6l0.6,3.3c0.2,0.9-0.3,1.7-1.1,1.7"/>
	<path class="st1" d="M381.9,30c-0.2,0.9-0.4,2-0.5,2.8l-5.7,31.9l6-33.6L381.9,30z"/>
	<polygon class="st1" points="210.8,51.4 207.6,64.7 210.8,51.4 	"/>
	<path class="st2" d="M434.6,38.9l-1.6-8.3c-1.3-6-5-8.9-13.2-8.9H385c-0.8,0-1.6,0.4-1.8,1.4L370,97.8c-0.2,0.9-0.2,1.6-0.1,2.1
		c0.1,0.5,1.6,0.4,2.4,0.4h12c0.8,0,2.3,0.1,2.7-0.1c0.4-0.2,0.6-1.6,0.8-2.6l4.3-26.2l5.2-29.1c0.2-0.9,1-1.7,1.8-1.7l34.5,0
		C434.3,40.6,434.8,39.8,434.6,38.9"/>
	<path class="st2" d="M483.6,8.6c-0.8,0-15.3,0-15.3,0c-0.8,0-1.8,1-2.3,1.8l-26.8,47.1c-0.5,0.8-1,0.8-1.2-0.2l-2-10.3
		c-0.2-0.9-1-1.7-1.8-1.7h-17.2c-0.8,0-1.3,0.8-1.1,1.7l7.7,32.4c0.2,0.9,0.2,2.4,0,3.4l-3.6,16.4c-0.2,0.9,0.3,1.2,1.1,1.2h17
		c0.8,0,1.6-0.3,1.8-1.2l3.6-16.6c0.2-0.9,0.8-2.2,1.2-3l43.8-69.3c0.5-0.8,0.4-1.7-0.4-1.7L483.6,8.6z"/>
	<path class="st2" d="M304.2,21.7h-15.6c-0.8,0-1.6,0.3-1.8,1.3l-5.1,28.7l-5.1,27.5c-0.2,0.9-1,0.9-1.8,0.9h-10.2
		c-10.1,0-8.9-7.6-6.9-19.1c0-0.1,6.5-38.1,6.5-38.1c0.1-0.9-0.4-1.3-1.2-1.3h-14.8c-0.8,0-1.6,0.3-1.8,1.3l-6,38
		c-3,20.6-3.1,38.6,16.9,39.2c0.3,0,31.5,0,31.5,0c0.8,0,1.6-0.3,1.8-1.2l6.8-38.1l6.7-38.3C304.2,22.6,304.5,21.7,304.2,21.7z"/>
	<path class="st2" d="M149.2,21.7h-16.7c-0.8,0-1.6,0.2-1.8,1.2l-3,15.6c-0.2,0.9,0.3,1.7,1.1,1.7h16c0.8,0,1.6-0.9,1.8-1.8
		l2.9-15.7C149.6,22.6,149.8,21.7,149.2,21.7z"/>
	<path class="st2" d="M127.8,45.3c-0.8,0-1.6,0.8-1.8,1.7l-2.2,11.9l-5,27.4c0,0-2.7,14.6-2.9,15.5c0,0-2.2,10.5-7.6,10.1
		c-2.5-0.2-5.4-0.9-5.4-0.9h0c-1.5-0.5-1.6,1.3-1.8,2.3l-3.3,17.1c-0.2,0.9,0.3,1.8,1.1,1.8c0,0,7.2,1.2,12.3,1.2h0.8
		c12.5,0,19.1-8.8,23.4-32.7l5-27.7l4.7-25.7c0.2-0.9-0.3-1.8-1.1-1.8"/>
	<path class="st2" d="M343.5,21.6c-28.1,0-34.8,20.7-38.5,41.2c-3.7,20.9-3.4,37.5,25.6,37.5h1c11.5,0,25.5,0,25.5,0
		c0.8,0,1.6-0.9,1.7-1.8l2.9-13.3c0.2-0.9-0.4-1.2-1.2-1.2h-26.1c-9.5,0-12.8-3.5-12.5-11.3c0-0.9,0.8-3.2,1.6-3.2h40.2
		c1.8,0,1.8-1.2,1.8-1.2C369.8,46.2,370.1,21.6,343.5,21.6 M350.9,54.5c0,1-2.7,0.8-2.7,0.8l-21.9-0.2c-0.8,0-1-1.3-1-2.2
		c0,0,0.1-1.1,0.1-1.3c1.7-7,6.7-11,14.7-11c9,0,10.9,5.3,10.9,11.2"/>
	<path class="st2" d="M222.3,78.7c0,0,7.9-22.8,9.6-36c2.4-17.6-4.9-43.2-33.5-43.2c-28.4,0-40.7,24.4-45.4,51
		c-4.7,26.7,1.5,50,29.7,49.8l43.1,0c0.8,0,1.6-0.8,1.8-1.7l3.6-16.5c0.2-0.9-0.3-1.7-1.1-1.7l-3.5,0l-3.5,0c-0.7,0-1.1-0.5-1-1.2
		C222.2,78.9,222.2,78.8,222.3,78.7 M207.5,64.7l-3.2,13.2c-0.2,0.9-1.1,1.5-1.9,1.5h-16.7c-12.7,0-15.7-11.7-12.7-29.1
		c3.1-17.8,9.2-28.8,21.7-30c17-1.5,20.5,12.8,16.4,29.3L207.5,64.7z"/>
</g>
</svg>
